M48
METRIC
T14C0.000
T26C0.000
T28C0.000
T42C0.000
T50C0.000
T14C0.300
T26C0.900
T28C1.000
T42C2.400
T50C3.200
%
G90
T14
X85340Y148920
X88060Y148920
X86700Y148920
X82620Y147560
X87380Y149940
X83300Y149940
X83980Y148920
X82620Y146200
X87380Y139740
X84660Y139740
X86020Y139740
X86700Y140760
X85340Y140760
X83980Y140760
X82620Y140760
X82620Y142120
X82620Y143480
X82620Y144840
X88060Y140760
X82280Y126480
X90780Y120360
X97920Y120360
X82280Y131920
X82280Y150620
X82280Y137020
X96900Y161500
X142120Y161500
X124780Y130220
X117980Y131240
X104380Y142460
X97580Y131580
X109820Y134300
X105740Y151980
X121264Y156062
X126064Y156062
X120464Y142122
X118864Y142122
X127664Y156062
X125264Y156062
X123664Y156062
X122864Y156062
X120464Y156062
X118864Y156062
X140760Y148240
X105740Y153680
X105740Y155040
X119680Y163200
X119000Y137020
X117980Y137020
X97240Y130900
X103700Y144160
X103020Y141780
X103700Y142120
X105060Y142800
X116620Y130560
X117300Y130900
X118660Y131580
X105400Y128180
X92820Y131580
X88060Y131580
X132940Y162180
X142120Y164220
X141100Y159800
X106420Y156060
X96900Y158440
X96900Y163540
X82280Y134640
X82280Y129200
X82280Y139060
X109480Y124100
X83300Y139740
X121264Y142122
X123664Y142122
X127664Y142122
X130864Y142122
X132464Y142122
X127840Y158780
X130220Y139400
X129880Y158780
X123760Y158780
X135660Y153680
X132260Y157080
X133620Y156400
X130560Y156740
X129200Y156060
X135660Y156740
X133280Y142120
X135320Y140420
X134300Y141100
X138380Y141100
X116620Y148580
X135320Y144500
X133280Y153680
X134300Y153680
X122060Y140080
X116620Y157760
X127160Y139740
X125460Y157760
X134980Y146880
X133960Y145860
X110160Y143820
X116620Y156400
X116960Y152660
X116620Y155040
X118660Y145520
X117300Y144500
X141780Y154020
X141780Y150280
X128520Y163200
X110160Y149600
X137360Y137360
X141440Y134640
X112200Y138720
X120020Y161500
X112200Y163200
X142120Y140420
X143140Y143140
X127500Y134300
X118320Y135320
X103020Y151300
X99620Y130220
X111180Y159120
X111180Y158100
X111180Y157080
X107440Y157080
X108800Y157080
X107440Y158100
X105740Y157080
X99620Y161840
X99620Y160820
X99620Y159800
X96560Y134640
X91800Y129880
X93840Y131920
X88060Y132600
X102340Y146200
X98600Y143480
X97580Y141440
X130220Y129200
X91460Y135320
X92820Y144160
X94520Y140080
X92480Y148580
X97240Y145180
X91800Y126820
X96900Y148580
X88400Y126820
X96900Y152660
X97580Y129540
X110500Y129540
X92820Y139740
X92820Y159120
X102000Y132500
X104000Y136500
X106000Y136500
X102000Y134500
X125982Y151141
X125982Y149141
X127982Y147141
X123982Y147141
X123982Y151141
X123982Y149141
X125982Y147141
X127982Y149141
X127982Y151141
X104000Y134500
X106000Y134500
X102000Y136500
X106000Y132500
X104000Y132500
X92820Y160820
X92820Y138380
X103700Y127160
X97920Y130220
X96220Y153000
X87380Y126820
X95880Y148580
X96220Y145180
X93500Y148580
X94520Y144160
X94520Y138720
X98260Y146200
X90780Y135660
X97240Y138720
X97920Y142120
X98260Y142800
X113220Y132600
X91120Y131920
X92140Y129200
X96900Y135320
X100640Y159800
X100640Y160820
X100640Y161840
X102680Y157080
X104380Y157080
X108800Y158100
X102000Y157760
X110160Y157080
X110160Y158100
X110160Y159120
X97920Y134980
X108120Y138720
X123080Y134300
X142460Y138380
X139740Y148240
X143140Y144500
X142120Y141440
X115600Y138380
X109820Y155720
X140420Y134640
X137360Y138380
X110160Y150960
X123760Y163200
X136680Y161160
X141780Y155040
X117980Y145180
X116620Y144840
X116960Y154360
X117980Y152660
X116960Y155720
X116960Y157080
X133280Y145520
X134980Y145860
X133960Y146880
X125800Y140420
X141780Y158100
X110160Y145520
X139740Y145520
X134300Y152660
X133280Y152660
X135320Y151300
X126064Y142122
X138720Y141780
X133960Y141780
X135660Y141100
X138720Y156060
X138380Y156740
X129880Y156400
X133960Y157760
X132940Y156740
X131920Y157760
X122740Y139740
X130560Y158440
X129880Y137020
X119340Y139400
X119340Y158780
X131664Y142122
X130064Y142122
X125264Y142122
X122864Y142122
X82620Y148920
T26
X99060Y124460
X101600Y124460
X109220Y165100
X127000Y127000
X124460Y127000
X88900Y121920
X102870Y121580
X100370Y121580
X87785Y158955
X89785Y156455
X89785Y158955
X87785Y156455
X105370Y121580
X116840Y127000
X129540Y127000
X106680Y124460
X104140Y124460
X83820Y121920
X88900Y124460
X86360Y124460
X83820Y124460
X86360Y121920
X132080Y134620
T28
X129540Y170180
X134620Y170180
X139700Y170180
X144780Y170180
X100076Y170180
X105156Y170180
X110236Y170180
X115316Y170180
X122936Y170180
X109220Y121920
X114300Y121920
X121920Y121920
X124460Y121920
X132080Y121920
X137160Y121920
X142240Y121920
X147320Y132080
X147320Y137160
X83416Y171082
X89916Y171082
X89916Y166582
X83416Y166582
X147320Y142240
X147320Y144780
X147320Y139700
X147320Y134620
X144780Y121920
X139700Y121920
X134620Y121920
X127000Y121920
X119380Y121920
X116840Y121920
X111760Y121920
X120396Y170180
X117856Y170180
X112776Y170180
X107696Y170180
X102616Y170180
X142240Y170180
X137160Y170180
X132080Y170180
X127000Y170180
T42
X85100Y151700
X85100Y163700
T50
X95250Y121920
X96520Y170180
X147320Y127000
X147320Y154940
M30
